<?xml version="1.0" encoding="utf-8" standalone="yes"?>
<svg width="351" height="351" viewBox="0 0 351 351" fill="none" version="1.2" baseProfile="tiny-ps" xmlns="http://www.w3.org/2000/svg">
  <title>bimi-svg-tiny-12-ps</title>
  <circle cx="174.5" cy="173.5" r="163.5" fill="white"/>
  <path fill-rule="evenodd" d="M156.315 0.233901C141.046 2.4989 124.815 6.2469 124.815 7.5079C124.815 7.9489 126.686 9.1529 128.973 10.1839C131.26 11.2149 134.826 13.2869 136.898 14.7879C140.037 17.0619 141.169 17.3719 143.695 16.6469C145.362 16.1689 152.708 15.2419 160.02 14.5859C173.175 13.4059 183.85 13.7059 201.144 15.7409C208.519 16.6089 210.248 16.5399 211.644 15.3209C212.563 14.5189 216.324 12.2819 220.001 10.3509L226.687 6.8409L221.001 5.2609C208.429 1.7679 197.115 0.397901 178.315 0.0949013C167.865 -0.0740987 157.965 -0.0110988 156.315 0.233901ZM82.2187 4.4569C82.6117 5.0929 83.6767 5.6129 84.5867 5.6129C85.4957 5.6129 89.9877 7.4689 94.5667 9.7379C110.333 17.5479 118.102 28.0059 125.289 51.0919C127.34 57.6809 130.351 65.7129 131.981 68.9419L134.944 74.8119L131.63 81.6869C129.807 85.4679 127.993 88.5739 127.6 88.5879C127.206 88.6019 124.778 87.2769 122.204 85.6449C118.103 83.0439 108.423 78.9389 102.262 77.1869C100.462 76.6749 99.2767 78.4269 92.6427 91.4199L85.0777 106.237L89.6957 107.893C97.7167 110.769 107.032 116.873 114.547 124.179C122.027 131.451 123.68 134.41 119.565 133.166C115.241 131.858 114.704 132.146 112.624 136.897L110.53 141.681L112.673 143.962C115.015 146.455 115.553 149.104 113.565 148.357C107.994 146.264 108.123 146.174 107.386 152.692C106.862 157.323 106.102 159.369 104.281 161.057L101.87 163.291L104.647 165.952C108.328 169.479 109.462 169.309 110.249 165.113C110.61 163.188 111.293 161.613 111.766 161.613C113.48 161.613 138.147 166.612 138.583 167.048C138.829 167.293 137.969 169.392 136.673 171.711C134.702 175.235 132.837 176.686 125.315 180.546C120.365 183.087 114.403 185.974 112.065 186.962C109.272 188.142 107.815 189.384 107.815 190.584C107.815 192.268 107.236 192.195 100.389 189.641C96.3037 188.117 88.6017 184.54 83.2717 181.692C77.9417 178.844 73.4567 176.649 73.3067 176.814C72.5667 177.622 63.8637 196.934 62.8367 200.045C61.6577 203.62 60.4717 204.484 59.3147 202.613C58.9747 202.063 58.3637 201.613 57.9567 201.613C56.8867 201.613 54.5807 208.426 55.2727 209.545C55.5937 210.064 54.0957 214.297 51.9447 218.953C49.7947 223.608 47.5007 229.034 46.8487 231.01C45.8557 234.017 45.3727 234.447 43.8807 233.648C42.4617 232.889 41.8657 233.205 40.9567 235.201C40.3287 236.579 39.8147 238.659 39.8147 239.822C39.8147 240.985 38.6427 243.937 37.2107 246.381L34.6067 250.825L31.8397 245.969C27.2127 237.847 24.2697 230.295 25.5647 229.863C27.7227 229.144 33.1587 225.118 33.5397 223.957C33.7807 223.22 31.6587 222.495 27.6867 221.957C22.2067 221.215 21.3747 220.811 20.7967 218.613C18.6737 210.54 18.6737 210.613 20.8487 210.613C21.9877 210.613 26.1057 209.889 29.9987 209.003C38.7057 207.022 37.5757 205.979 25.7167 205.051L17.0477 204.373L16.5217 199.743C16.2327 197.197 16.0767 195.029 16.1747 194.927C16.2727 194.825 20.5537 194.065 25.6887 193.239C30.8237 192.412 35.2377 191.523 35.4987 191.262C35.7587 191.002 32.8987 190.502 29.1437 190.151C25.3877 189.801 20.6277 189.272 18.5647 188.976L14.8147 188.437V183.163V177.889L22.5647 177.209C31.2517 176.446 42.0337 173.776 41.2887 172.571C41.0207 172.137 37.3167 171.506 33.0577 171.169C14.5387 169.701 14.8147 169.77 14.8147 166.666C14.8147 165.124 15.0957 162.457 15.4397 160.738C16.0647 157.615 16.0697 157.613 22.6897 157.612C26.3337 157.612 34.2647 157.099 40.3147 156.472C46.3647 155.845 53.3397 155.239 55.8147 155.125C62.3207 154.826 62.8147 154.719 62.8147 153.613C62.8147 153.023 59.2507 152.613 54.1217 152.613C46.0617 152.613 17.6517 150.737 17.0477 150.165C16.8107 149.941 18.9227 139.508 19.3377 138.852C19.4287 138.709 24.3657 138.131 30.3087 137.568C47.9497 135.896 47.4017 134.623 28.4227 133.184C24.6317 132.897 21.3547 132.487 21.1417 132.273C20.5217 131.653 27.3957 113.302 31.6417 104.24C42.9517 80.1059 64.0117 55.7719 86.1457 41.2629C92.6527 36.9979 99.9657 32.5419 102.396 31.3609C104.826 30.1809 106.809 28.9669 106.802 28.6639C106.795 28.3609 104.313 25.9409 101.286 23.2859L95.7827 18.4589L87.0487 23.6739C60.9947 39.2279 46.3197 53.0859 29.9267 77.6129C11.6707 104.93 2.28572 133.52 0.220717 168.113C-1.71328 200.51 9.19272 239.846 27.8187 267.656C59.5187 314.987 106.232 342.345 162.526 346.546C184.627 348.196 212.864 344.661 234.113 337.585C264.28 327.54 294.179 305.721 314.677 278.794C335.753 251.108 346.909 221.666 349.91 185.815C352.32 157.028 344.859 122.733 329.96 94.1129C313.058 61.6449 291.737 39.4869 261.018 22.4639L253.72 18.4199L249.268 23.0019C246.819 25.5209 244.815 27.9539 244.815 28.4069C244.815 28.8599 247.615 30.7329 251.037 32.5699C264.862 39.9919 281.584 53.2029 292.083 64.9969C307.087 81.8539 317.418 99.0559 325.268 120.254C330.244 133.691 330.328 133.417 321.205 133.543C314.304 133.638 306.815 134.719 306.815 135.62C306.815 136.024 310.077 136.648 314.065 137.006C318.053 137.365 323.599 137.915 326.39 138.229L331.465 138.8L332.423 144.591L333.381 150.381L327.348 150.97C324.03 151.294 316.013 151.863 309.532 152.235C298.476 152.869 295.399 153.62 297.795 155.1C298.351 155.445 304.546 156.168 311.561 156.707C318.576 157.247 326.678 157.929 329.565 158.223L334.815 158.757V164.124V169.49L330.565 170.005C328.228 170.289 322.277 170.777 317.342 171.09C301.469 172.097 304.422 174.949 323.283 176.829C329.351 177.433 334.709 178.273 335.19 178.695C335.671 179.117 335.76 181.492 335.388 183.972L334.712 188.482L329.014 189.091C316.55 190.424 313.705 190.836 314.119 191.25C314.356 191.487 317.422 192.116 320.933 192.646C334.911 194.76 333.815 194.246 333.815 198.69C333.815 200.969 333.28 202.871 332.565 203.132C331.878 203.382 327.574 203.996 323.002 204.496C310.622 205.85 310.437 207.019 322.278 209.076C326.493 209.808 330.189 210.654 330.491 210.956C330.793 211.258 330.502 213.748 329.845 216.488L328.649 221.472L322.258 222.156C316.34 222.79 315.943 222.984 316.9 224.771C317.468 225.833 319.481 227.44 321.374 228.342C323.266 229.245 324.815 230.638 324.815 231.438C324.815 233.428 316.542 250.613 315.584 250.613C315.161 250.613 314.815 250.093 314.815 249.457C314.815 248.822 313.688 246.824 312.311 245.019C310.934 243.213 310.184 241.503 310.644 241.219C311.698 240.568 310.904 234.786 309.656 234.015C309.145 233.699 308.061 233.994 307.247 234.669C305.238 236.337 304.929 235.83 303.7 228.848C302.96 224.651 302.124 222.666 300.969 222.364C300.054 222.124 298.031 219.588 296.474 216.727C294.303 212.738 293.906 211.208 294.772 210.165C295.948 208.747 295.249 203.999 293.725 203.057C293.247 202.762 292.003 202.977 290.96 203.536C289.298 204.425 288.844 203.966 287.294 199.832C284.793 193.159 277.054 176.613 276.433 176.613C276.148 176.613 273.887 177.982 271.409 179.654C268.93 181.327 261.899 184.974 255.785 187.759L244.667 192.823L242.491 190.845C241.294 189.758 235.664 186.499 229.979 183.604C224.294 180.708 218.316 177.222 216.693 175.857C214.034 173.62 210.183 167.771 210.991 167.198C211.504 166.835 237.189 161.604 238.437 161.609C239.054 161.611 239.851 163.435 240.207 165.661L240.854 169.709L245.335 166.492C247.799 164.722 249.815 163.205 249.815 163.121C249.815 163.036 248.527 160.3 246.953 157.04C245.379 153.78 243.78 150.121 243.4 148.908C242.809 147.024 242.343 146.842 240.197 147.658C235.033 149.621 234.295 148.104 238.512 144.193L241.209 141.692L239.012 137.293C237.804 134.874 236.815 132.381 236.815 131.753C236.815 130.348 234.163 130.242 233.315 131.613C232.576 132.809 228.815 132.963 228.815 131.797C228.815 131.348 231.402 128.28 234.565 124.978C240.691 118.582 248.564 113.485 258.315 109.602C261.615 108.288 264.656 106.939 265.074 106.604C265.82 106.006 257.963 90.6089 252.228 81.4319L249.303 76.7509L240.283 80.4719C235.322 82.5189 229.25 85.5919 226.789 87.3019L222.315 90.4119L218.815 83.2619L215.315 76.1129L218.032 70.1129C219.527 66.8129 222.615 58.0379 224.896 50.6129C229.997 34.0019 232.57 28.8109 239.167 21.8269C245.676 14.9349 251.013 11.2599 260.662 7.0249C267.215 4.1479 267.855 3.6619 265.114 3.6389C256.674 3.5699 239.455 8.8559 229.315 14.6299C215.406 22.5499 201.825 27.5949 194.335 27.6249C191.356 27.6369 191.376 27.6719 195.815 30.1989C206.016 36.0079 208.76 40.9769 208.793 53.6959C208.805 58.4169 208.545 62.5499 208.215 62.8799C207.885 63.2099 206.082 62.0839 204.207 60.3789C199.119 55.7479 194.026 52.9419 187.09 50.9449L180.865 49.1519L181.45 45.4929C182.164 41.0269 179.357 37.6129 174.97 37.6129C170.704 37.6129 168.429 40.6979 169.085 45.5909C169.587 49.3299 169.454 49.6129 167.2 49.6129C163.05 49.6129 152.644 54.4439 147.559 58.7319C144.886 60.9859 142.387 62.5179 142.007 62.1359C141.626 61.7539 141.315 57.4909 141.315 52.6629C141.315 44.3259 141.486 43.6339 144.708 38.9129C146.575 36.1789 150.144 32.6489 152.641 31.0699L157.181 28.1979L148.248 25.9989C142.062 24.4759 134.856 21.5179 124.815 16.3809C110.145 8.8749 99.7767 5.4489 87.2927 3.9809C83.0257 3.4799 81.6917 3.6049 82.2187 4.4569ZM157.178 57.4569C153.906 59.5709 149.765 63.1509 147.974 65.4119C144.786 69.4369 144.751 69.5889 146.319 72.6219C148.998 77.8009 155.653 83.6399 162.664 86.9619C168.51 89.7319 170.344 90.1119 177.815 90.1039C184.219 90.0979 187.178 89.6319 189.815 88.2139C194.117 85.8999 198.831 82.0309 200.77 79.2209C201.899 77.5869 201.449 77.7419 198.77 79.9109C194.493 83.3749 184.523 88.1289 179.72 88.9959L176.124 89.6459L175.47 77.4719C175.11 70.7769 174.815 62.9209 174.815 60.0149C174.815 54.3579 173.66 52.6669 171.193 54.7139C169.169 56.3939 165.523 63.7669 163.33 70.6129C161.125 77.4999 160.111 78.6419 159.25 75.2099C158.203 71.0379 159.624 64.6259 162.873 58.8629C166.495 52.4359 165.374 52.1589 157.178 57.4569ZM183.682 61.6959C185.273 65.2259 186.906 69.6879 187.31 71.6129C188.562 77.5759 189.995 78.6669 189.279 73.1129C188.508 67.1239 185.363 59.4189 182.71 57.0179C181.141 55.5979 181.319 56.4549 183.682 61.6959ZM134.859 86.7329L132.656 91.8539L135.837 95.1349L139.018 98.4169L134.827 105.592C132.522 109.539 130.835 112.966 131.078 113.209C131.321 113.452 137.098 114.858 143.917 116.335C154.784 118.687 158.6 119.025 174.815 119.066C189.536 119.103 195.002 118.726 201.575 117.216C213.469 114.485 214.847 113.008 205.095 113.442C197.905 113.761 191.957 112.851 179.508 109.523C176.007 108.587 175.726 108.251 176.008 105.329C176.315 102.156 176.309 102.152 170.395 101.398C161.546 100.269 152.719 95.6739 144.902 88.1269C141.191 84.5439 137.909 81.6129 137.608 81.6129C137.307 81.6129 136.07 83.9169 134.859 86.7329ZM100.815 85.0109C100.815 85.8539 99.5267 88.0219 97.9537 89.8279C94.9827 93.2379 91.8147 98.7629 91.8147 100.533C91.8147 101.094 95.0767 103.073 99.0647 104.931C103.053 106.79 109.077 110.404 112.452 112.962C115.828 115.52 118.964 117.613 119.421 117.613C119.878 117.613 117.581 114.913 114.315 111.613C110.461 107.718 108.963 105.613 110.045 105.613C112.646 105.613 117.137 99.0759 116.571 96.1149C115.98 93.0279 116.252 93.0299 121.708 96.1479C124.125 97.5299 126.285 98.4759 126.51 98.2519C127.395 97.3659 118.939 91.3359 112.315 88.1299C103.092 83.6659 100.815 83.0479 100.815 85.0109ZM240.815 87.5479C234.972 89.3329 226.102 94.2289 222.204 97.8219L218.009 101.689L223.526 111.08L229.043 120.471L235.179 115.272C238.554 112.413 243.003 109.034 245.065 107.762C247.128 106.49 248.815 105.282 248.815 105.076C248.815 104.871 245.88 105.807 242.292 107.158C234.449 110.11 234.48 110.108 235.78 107.679C237.225 104.979 237.104 104.251 234.707 101.203C232.709 98.6629 232.476 98.6049 230.207 100.092C228.892 100.954 227.815 101.24 227.815 100.729C227.815 99.4479 237.552 90.7999 241.002 89.0159C242.549 88.2159 243.815 87.3479 243.815 87.0869C243.815 86.8259 243.702 86.6519 243.565 86.6989C243.428 86.7459 242.19 87.1279 240.815 87.5479ZM140.832 125.815C140.897 130.641 144.465 142.357 148.222 150.081C153.328 160.576 163.226 171.603 169.356 173.626C173.761 175.08 178.956 174.22 181.281 171.651C182.945 169.812 182.909 169.616 180.463 167.17C179.057 165.764 177.21 164.613 176.36 164.613C175.51 164.613 174.815 164.163 174.815 163.613C174.815 163.063 175.378 162.606 176.065 162.598C176.753 162.589 177.99 162.139 178.815 161.598C181.338 159.941 178.087 158.646 171.365 158.628C163.903 158.609 165.018 156.82 173.183 155.712C176.28 155.292 179.087 154.674 179.422 154.339C179.757 154.004 178.381 153.041 176.365 152.198C171.774 150.28 166.815 146.793 166.815 145.484C166.815 144.873 168.549 144.751 171.315 145.165L175.815 145.84V140.418C175.815 137.359 175.207 134.164 174.421 133.088C173.073 131.245 172.844 131.239 167.583 132.897C164.589 133.841 160.604 134.611 158.727 134.608C155.298 134.602 153.897 133.888 145.419 127.815C142.696 125.864 140.822 125.047 140.832 125.815ZM143.362 172.688C141.525 176.782 140.844 179.593 141.275 181.309C141.974 184.094 155.965 205.663 158.365 207.654C160.071 209.07 162.002 207.677 166.909 201.489L169.784 197.865L162.049 187.404C157.795 181.65 152.74 174.62 150.815 171.78C148.89 168.94 147.039 166.616 146.702 166.615C146.364 166.614 144.861 169.347 143.362 172.688ZM189.23 185.237C174.571 202.459 153.105 231.236 154.143 232.274C154.462 232.593 156.861 233.253 159.475 233.742C162.963 234.393 164.56 234.295 165.479 233.371C169.206 229.627 186.318 205.155 189.25 199.376C192.514 192.943 195.38 182.808 194.599 180.464C194.396 179.857 191.98 182.005 189.23 185.237ZM129.407 189.863C128.044 194.747 127.238 202.502 124.755 234.613C123.157 255.282 118.3 284.605 113.162 304.613C110.932 313.295 120.834 289.845 123.666 279.738C127.169 267.233 127.379 268.403 125.797 291.613C125.254 299.588 124.332 308.747 123.749 311.967C122.099 321.081 123.223 319.599 126.102 308.863C132.555 284.796 135.931 240.126 133.866 206.113C133.299 196.763 132.83 188.101 132.825 186.863C132.807 182.824 130.904 184.495 129.407 189.863ZM71.3677 195.162C68.8637 200.414 66.8147 205.135 66.8147 205.652C66.8147 206.645 81.6327 214.378 89.6067 217.546C92.1957 218.574 96.7017 220.363 99.6197 221.521L104.925 223.627L109.37 214.049C111.815 208.782 113.815 204.114 113.815 203.678C113.815 203.241 107.659 200.294 100.136 197.129C92.6117 193.964 84.3497 190.078 81.7747 188.494C79.1997 186.909 76.8297 185.613 76.5067 185.613C76.1847 185.613 73.8717 189.91 71.3677 195.162ZM217.531 189.613C212.35 222.993 216.527 285.363 225.802 313.113C227.063 316.885 227.605 317.814 227.262 315.613C225.85 306.549 224.894 295.792 224.369 283.04L223.795 269.113L226.629 277.613C229.973 287.639 236.06 303.711 236.38 303.359C236.503 303.224 235.533 298.388 234.223 292.613C231.381 280.076 228.668 262.404 225.32 234.613C223.962 223.338 222.185 211.178 221.372 207.591C220.56 204.003 219.52 197.478 219.062 193.091C218.25 185.312 218.212 185.226 217.531 189.613ZM255.315 194.624C245.965 198.403 237.718 201.858 236.989 202.304C235.653 203.119 237.065 206.738 243.648 219.375L245.868 223.637L248.841 222.099C250.477 221.254 251.815 220.359 251.815 220.112C251.815 219.865 250.229 216.726 248.291 213.137L244.767 206.61L251.541 203.314C258.327 200.011 272.815 189.847 272.815 188.389C272.815 187.962 272.702 187.645 272.565 187.684C272.428 187.723 264.665 190.846 255.315 194.624ZM86.9907 201.901C85.4657 203.738 85.0717 207.016 86.3147 207.513C87.9167 208.155 90.4937 202.892 89.2077 201.606C88.4377 200.836 87.8047 200.92 86.9907 201.901ZM256.837 203.741C256.869 205.741 260.42 213.251 261.711 214.049C264.462 215.749 261.241 206.042 258.223 203.537C257.128 202.628 256.82 202.674 256.837 203.741ZM92.7727 207.691C92.1607 208.834 91.9367 210.489 92.2747 211.369C92.8047 212.751 93.0717 212.775 94.2437 211.541C94.9897 210.755 95.9037 209.101 96.2747 207.863C97.1627 204.901 94.3407 204.762 92.7727 207.691ZM100.251 209.363C99.9187 210.875 99.4747 212.676 99.2627 213.363C99.0507 214.051 99.2587 214.613 99.7237 214.613C100.923 214.613 102.528 212.498 103.732 209.33C104.638 206.948 104.524 206.613 102.809 206.613C101.488 206.613 100.658 207.506 100.251 209.363ZM57.4567 221.368C54.8067 227.218 52.5647 233.154 52.4757 234.559C52.3277 236.903 53.6827 237.794 68.9817 245.413C78.1487 249.979 86.8547 253.804 88.3277 253.913C90.8337 254.1 91.3527 253.337 96.3537 242.113C99.2947 235.513 101.389 229.846 101.008 229.52C100.627 229.194 94.0147 226.106 86.3147 222.659C78.6147 219.211 70.0557 215.117 67.2957 213.561L62.2767 210.731L57.4567 221.368ZM273.315 218.587C257.055 225.367 248.314 229.471 248.373 230.299C248.423 231.011 259.668 254.615 260.341 255.422C260.483 255.591 262.278 255.029 264.329 254.171C267.156 252.991 267.805 252.305 267.007 251.344C266.427 250.646 263.914 246.034 261.421 241.094C256.296 230.941 256.25 231.124 264.728 227.92C267.251 226.967 272.584 223.979 276.579 221.281C288.236 213.409 287.396 212.716 273.315 218.587ZM74.2637 230.081C73.4667 231.988 72.8147 234.518 72.8147 235.703C72.8147 237.545 73.0417 237.669 74.3807 236.558C76.3267 234.943 78.8147 230.232 78.8147 228.163C78.8147 225.285 75.7237 226.588 74.2637 230.081ZM271.825 234.113C271.822 237.126 275.451 244.31 276.464 243.297C277.368 242.393 275.877 237.255 273.793 234.093L271.828 231.113L271.825 234.113ZM88.0777 233.863C86.6237 235.714 85.7387 241.448 86.8047 242.107C87.7337 242.681 89.9627 239.054 91.2557 234.863C92.0317 232.348 89.8157 231.651 88.0777 233.863ZM142.012 247.103C141.891 255.378 141.952 255.609 144.398 256.223C147.499 257.001 148.05 256.481 148.483 252.367C149.283 244.753 151.815 244.985 151.815 252.672C151.815 257.276 151.986 257.613 154.315 257.613C156.411 257.613 156.815 257.141 156.815 254.695C156.815 247.415 159.355 246.63 160.315 253.613C160.899 257.856 161.329 258.613 163.159 258.61C164.996 258.607 165.322 258.02 165.362 254.646C165.389 252.467 165.751 250.344 166.167 249.928C167.396 248.699 168.783 251.826 168.8 255.863C168.812 258.854 169.194 259.613 170.685 259.613C172.162 259.613 172.663 258.658 173.068 255.064C173.35 252.561 173.883 250.212 174.252 249.843C175.406 248.689 176.784 251.946 176.8 255.863C176.812 258.941 177.173 259.613 178.815 259.613C180.457 259.613 180.818 258.941 180.83 255.863C180.839 253.801 181.238 251.493 181.719 250.735C183.181 248.426 184.815 250.503 184.815 254.672C184.815 257.946 185.153 258.613 186.815 258.613C188.548 258.613 188.815 257.946 188.815 253.613C188.815 249.329 189.093 248.613 190.758 248.613C192.328 248.613 192.759 249.427 193.008 252.863C193.223 255.837 193.765 257.113 194.815 257.113C195.905 257.113 196.401 255.753 196.629 252.132C196.802 249.393 197.477 246.812 198.129 246.398C200.737 244.74 201.766 245.761 202.415 250.652C202.816 253.677 203.529 255.543 204.199 255.321C205.237 254.976 207.353 239.817 206.483 238.948C206.267 238.732 202.091 239.269 197.203 240.142C185.94 242.154 164.145 242.148 152.815 240.13C148.14 239.297 143.825 238.615 143.226 238.614C142.535 238.614 142.091 241.72 142.012 247.103ZM43.4387 248.509C41.4457 252.302 39.8147 256.021 39.8147 256.774C39.8147 258.617 69.3037 276.805 70.1457 275.481C70.2747 275.279 71.2257 272.526 72.2597 269.363C73.6137 265.223 74.6377 263.613 75.9177 263.613C78.8907 263.613 78.8577 265.014 75.7327 271.623C72.5237 278.408 72.5287 279.854 75.7687 281.588C77.6877 282.615 78.1827 281.977 82.6947 272.664L87.5537 262.633L79.4347 258.219C74.9687 255.791 67.3707 251.988 62.5507 249.767C57.7307 247.546 52.4857 244.803 50.8967 243.671C49.3067 242.539 47.7937 241.613 47.5337 241.613C47.2747 241.613 45.4317 244.716 43.4387 248.509ZM296.343 247.817C293.068 249.716 267.48 260.768 265.065 261.326C263.827 261.612 262.815 261.971 262.815 262.124C262.815 262.277 265.084 266.991 267.856 272.599C271.667 280.307 273.273 282.651 274.438 282.204C275.285 281.879 276.617 281.613 277.397 281.613C279.471 281.613 279.192 280.298 275.353 271.989L271.891 264.495L278.386 261.581C289.437 256.623 303.798 246.552 299.687 246.643C298.933 246.66 297.428 247.188 296.343 247.817ZM59.3717 258.836C57.4117 261.633 57.3777 263.613 59.2887 263.613C60.9037 263.613 64.1177 258.249 63.1077 257.24C61.9937 256.125 60.9607 256.567 59.3717 258.836ZM141.815 271.094C141.815 277.781 142.12 279.613 143.233 279.613C144.013 279.613 145.363 279.886 146.233 280.22C147.447 280.686 147.818 280.162 147.829 277.97C147.869 269.467 151.538 267.619 152.013 275.863C152.276 280.437 152.605 281.154 154.565 281.433C156.559 281.716 156.817 281.318 156.83 277.933C156.862 270.028 159.713 270.149 160.78 278.1C161.147 280.832 161.866 282.193 163.065 282.423C164.483 282.696 164.818 282.035 164.83 278.936C164.86 271.435 168.275 271.166 168.983 278.609C169.196 280.846 169.894 282.206 170.93 282.402C172.17 282.637 172.664 281.643 173.062 278.111C173.9 270.682 175.774 270.565 176.75 277.882C177.544 283.828 180.143 283.662 180.815 277.622C181.157 274.549 181.825 273.034 182.93 272.825C184.17 272.589 184.664 273.583 185.062 277.115C185.347 279.643 185.828 281.96 186.131 282.263C187.55 283.682 188.815 281.042 188.815 276.661C188.815 273.099 189.248 271.661 190.458 271.196C192.6 270.375 192.8 270.646 193.443 275.239C193.741 277.37 194.196 279.775 194.454 280.585C195.317 283.295 196.783 279.505 196.8 274.522L196.815 269.931L202.315 268.7C207.192 267.609 207.815 267.186 207.815 264.962C207.815 262.753 207.487 262.523 205.065 263.03C188.882 266.417 159.32 266.438 144.065 263.071C141.869 262.587 141.815 262.779 141.815 271.094ZM140.815 288.931C140.815 290.506 141.449 291.589 142.489 291.79C143.705 292.025 144.184 293.207 144.239 296.113C144.335 301.157 146.149 301.861 146.815 297.113C147.09 295.152 147.653 293.562 148.065 293.58C148.477 293.598 149.715 293.613 150.815 293.613C152.402 293.613 152.818 294.284 152.829 296.863C152.846 300.93 153.801 304.613 154.838 304.613C155.272 304.613 155.937 302.363 156.315 299.613C156.847 295.746 157.406 294.613 158.78 294.613C160.158 294.613 160.706 295.737 161.221 299.613C162.158 306.681 164.815 305.83 164.815 298.462C164.815 295.935 165.162 295.523 167.065 295.793C168.615 296.014 169.402 296.89 169.595 298.613C170.5 306.699 172.815 307.734 172.815 300.054C172.815 295.984 173.024 295.613 175.315 295.613C177.574 295.613 177.815 296.007 177.815 299.696C177.815 304.907 180.18 304.561 180.625 299.286C180.864 296.457 181.371 295.613 182.83 295.613C184.232 295.613 184.9 296.588 185.401 299.363C185.773 301.426 186.3 303.499 186.571 303.97C187.451 305.496 188.784 302.211 188.8 298.48C188.813 295.433 189.207 294.771 191.242 294.382C193.476 293.955 193.722 294.304 194.336 298.767C195.143 304.637 196.815 304.202 196.815 298.121C196.815 294.816 197.242 293.624 198.565 293.24C199.527 292.961 202.228 292.238 204.565 291.634C207.845 290.787 208.815 290.063 208.815 288.463C208.815 286.638 208.399 286.468 205.336 287.043C187.812 290.331 156.342 290.293 143.098 286.969C141.17 286.485 140.815 286.791 140.815 288.931Z" fill="#B81D13"/>
</svg>
